<?xml version="1.0" encoding="UTF-8" standalone="no"?>
<!-- Created with Inkscape (http://www.inkscape.org/) -->

<svg
   version="1.1"
   id="svg1"
   width="1440"
   height="1440"
   viewBox="0 0 1440 1440"
   sodipodi:docname="Dental Story.pdf"
   xmlns:inkscape="http://www.inkscape.org/namespaces/inkscape"
   xmlns:sodipodi="http://sodipodi.sourceforge.net/DTD/sodipodi-0.dtd"
   xmlns="http://www.w3.org/2000/svg"
   xmlns:svg="http://www.w3.org/2000/svg">
  <defs
     id="defs1">
    <clipPath
       clipPathUnits="userSpaceOnUse"
       id="clipPath4">
      <path
         d="M 0,1080 H 1080 V 0 H 0 Z"
         transform="translate(-506.42771,-480.54491)"
         id="path4" />
    </clipPath>
    <clipPath
       clipPathUnits="userSpaceOnUse"
       id="clipPath6">
      <path
         d="M 0,1080 H 1080 V 0 H 0 Z"
         transform="translate(-564.64942,-529.70311)"
         id="path6" />
    </clipPath>
    <clipPath
       clipPathUnits="userSpaceOnUse"
       id="clipPath8">
      <path
         d="M 0,1080 H 1080 V 0 H 0 Z"
         transform="translate(-655.99412,-444.46001)"
         id="path8" />
    </clipPath>
    <clipPath
       clipPathUnits="userSpaceOnUse"
       id="clipPath10">
      <path
         d="M 0,1080 H 1080 V 0 H 0 Z"
         transform="translate(-723.62892,-490.30571)"
         id="path10" />
    </clipPath>
    <clipPath
       clipPathUnits="userSpaceOnUse"
       id="clipPath12">
      <path
         d="M 0,1080 H 1080 V 0 H 0 Z"
         transform="translate(-809.11435,-446.72661)"
         id="path12" />
    </clipPath>
    <clipPath
       clipPathUnits="userSpaceOnUse"
       id="clipPath14">
      <path
         d="M 0,1080 H 1080 V 0 H 0 Z"
         transform="translate(-611.93951,-634.83062)"
         id="path14" />
    </clipPath>
    <clipPath
       clipPathUnits="userSpaceOnUse"
       id="clipPath16">
      <path
         d="M 0,1080 H 1080 V 0 H 0 Z"
         transform="translate(-720.71582,-566.14891)"
         id="path16" />
    </clipPath>
    <clipPath
       clipPathUnits="userSpaceOnUse"
       id="clipPath18">
      <path
         d="M 0,1080 H 1080 V 0 H 0 Z"
         transform="translate(-758.71779,-627.33502)"
         id="path18" />
    </clipPath>
    <clipPath
       clipPathUnits="userSpaceOnUse"
       id="clipPath20">
      <path
         d="M 0,1080 H 1080 V 0 H 0 Z"
         id="path20" />
    </clipPath>
    <clipPath
       clipPathUnits="userSpaceOnUse"
       id="clipPath22">
      <path
         d="M 0,1080 H 1080 V 0 H 0 Z"
         transform="translate(-495.29251,-632.12942)"
         id="path22" />
    </clipPath>
    <clipPath
       clipPathUnits="userSpaceOnUse"
       id="clipPath24">
      <path
         d="M 0,1080 H 1080 V 0 H 0 Z"
         transform="translate(-407.52251,-565.54441)"
         id="path24" />
    </clipPath>
  </defs>
  <sodipodi:namedview
     id="namedview1"
     pagecolor="#ffffff"
     bordercolor="#000000"
     borderopacity="0.25"
     inkscape:showpageshadow="2"
     inkscape:pageopacity="0.0"
     inkscape:pagecheckerboard="0"
     inkscape:deskcolor="#d1d1d1">
    <inkscape:page
       x="0"
       y="0"
       inkscape:label="1"
       id="page1"
       width="1440"
       height="1440"
       margin="1.41944 0 1.4133333"
       bleed="0" />
  </sodipodi:namedview>
  <g
     id="layer-MC0"
     inkscape:groupmode="layer"
     inkscape:label="Layer 1">
    <path
       id="path3"
       d="m 0,0 c -1.628,1.159 -4.184,2.38 -7.669,3.66 -3.722,1.51 -6.336,2.498 -7.845,2.963 l -8.367,2.79 c -8.834,2.672 -14.992,5.23 -18.479,7.67 -3.138,2.439 -4.706,5.577 -4.706,9.413 0,3.601 1.451,6.537 4.358,8.803 2.903,2.266 6.798,3.4 11.679,3.4 10.691,0 18.478,-5.23 23.36,-15.689 l 20.22,11.678 C 8.368,43.405 2.498,50.145 -5.055,54.91 c -7.555,4.764 -16.212,7.148 -25.974,7.148 -11.156,0 -20.63,-3.312 -28.414,-9.937 -7.787,-6.392 -11.68,-15.166 -11.68,-26.321 0,-11.043 3.836,-19.41 11.505,-25.103 6.159,-4.301 14.584,-8.08 25.277,-11.331 9.877,-2.789 16.735,-5.403 20.57,-7.845 3.835,-2.326 5.752,-5.637 5.752,-9.936 0,-3.951 -1.628,-7.089 -4.881,-9.413 -3.255,-2.326 -8.136,-3.486 -14.642,-3.486 -13.946,0 -23.302,6.215 -28.066,18.652 l -20.57,-12.028 c 3.487,-9.414 9.354,-16.795 17.607,-22.138 8.25,-5.349 18.361,-8.02 30.331,-8.02 13.015,0 23.648,3.313 31.902,9.937 8.25,6.624 12.376,15.571 12.376,26.846 0,6.624 -1.512,12.376 -4.533,17.257 C 9.528,-7.091 5.693,-3.486 0,0"
       style="fill:#ffffff;fill-opacity:1;fill-rule:nonzero;stroke:none"
       transform="matrix(1.3333333,0,0,-1.3333333,675.23693,799.27347)"
       clip-path="url(#clipPath4)" />
    <path
       id="path5"
       d="m 0,0 -22.486,-6.799 v -17.605 h -15.167 v -21.617 h 15.167 V -82.28 c 0,-12.087 3.224,-20.425 9.674,-25.015 6.45,-4.589 17.285,-6.014 32.51,-4.27 v 20.395 c -4.301,-0.234 -7.903,-0.262 -10.807,-0.088 -2.906,0.175 -5.116,0.96 -6.624,2.355 C 0.755,-87.51 0,-85.303 0,-82.28 v 36.259 h 19.698 v 21.617 H 0 Z"
       style="fill:#ffffff;fill-opacity:1;fill-rule:nonzero;stroke:none"
       transform="matrix(1.3333333,0,0,-1.3333333,752.86587,733.7292)"
       clip-path="url(#clipPath6)" />
    <path
       id="path7"
       d="m 0,0 c -4.533,-4.532 -10.171,-6.798 -16.909,-6.798 -6.741,0 -12.377,2.266 -16.909,6.798 -4.418,4.647 -6.624,10.398 -6.624,17.258 0,6.856 2.206,12.608 6.624,17.258 4.532,4.532 10.168,6.798 16.909,6.798 6.738,0 12.376,-2.266 16.909,-6.798 C 4.532,29.983 6.798,24.231 6.798,17.258 6.798,10.285 4.532,4.532 0,0 m -16.909,63.278 c -12.9,0 -23.824,-4.475 -32.772,-13.422 -8.834,-8.834 -13.249,-19.699 -13.249,-32.598 0,-13.017 4.415,-23.943 13.249,-32.772 8.829,-8.834 19.755,-13.249 32.772,-13.249 13.013,0 23.939,4.415 32.771,13.249 8.949,8.947 13.423,19.872 13.423,32.772 0,12.782 -4.474,23.647 -13.423,32.598 -8.949,8.947 -19.872,13.422 -32.771,13.422"
       style="fill:#ffffff;fill-opacity:1;fill-rule:nonzero;stroke:none"
       transform="matrix(1.3333333,0,0,-1.3333333,874.6588,847.38667)"
       clip-path="url(#clipPath8)" />
    <path
       id="path9"
       d="M 0,0 V 14.993 H -22.487 V -72.168 H 0 v 41.663 c 0,8.366 2.672,14.352 8.019,17.954 5.461,3.719 11.62,5.113 18.478,4.184 V 16.735 C 20.336,16.735 14.875,15.312 10.11,12.464 5.345,9.615 1.975,5.461 0,0"
       style="fill:#ffffff;fill-opacity:1;fill-rule:nonzero;stroke:none"
       transform="matrix(1.3333333,0,0,-1.3333333,964.83853,786.25907)"
       clip-path="url(#clipPath10)" />
    <path
       id="path11"
       d="M 0,0 -22.662,58.572 H -47.241 L -11.506,-25.8 c -2.091,-5.927 -4.94,-10.224 -8.541,-12.899 -3.603,-2.672 -8.367,-3.949 -14.294,-3.835 v -20.919 c 11.156,-0.58 20.483,1.947 27.979,7.584 7.496,5.638 13.509,14.728 18.042,27.28 L 43.405,58.572 H 19.35 Z"
       style="fill:#ffffff;fill-opacity:1;fill-rule:nonzero;stroke:none"
       transform="matrix(1.3333333,0,0,-1.3333333,1078.8191,844.36453)"
       clip-path="url(#clipPath12)" />
    <path
       id="path13"
       d="m 0,0 c 5.345,0 9.559,-1.569 12.64,-4.707 3.077,-3.138 4.619,-7.556 4.619,-13.248 v -50.727 h 22.487 v 53.516 c 0,11.157 -3.138,19.987 -9.413,26.496 -6.045,6.39 -13.89,9.588 -23.533,9.588 -11.972,0 -20.63,-4.069 -25.975,-12.202 v 9.762 h -22.487 v -87.16 h 22.487 v 47.066 c 0,7.087 1.714,12.464 5.143,16.125 C -10.605,-1.831 -5.927,0 0,0"
       style="fill:#ffffff;fill-opacity:1;fill-rule:nonzero;stroke:none"
       transform="matrix(1.3333333,0,0,-1.3333333,815.91933,593.5592)"
       clip-path="url(#clipPath14)" />
    <path
       id="path15"
       d="m 0,0 v 20.395 c -4.301,-0.234 -7.904,-0.261 -10.808,-0.087 -2.907,0.173 -5.116,0.958 -6.625,2.353 -1.511,1.395 -2.265,3.6 -2.265,6.625 V 65.544 H 0 V 87.16 h -19.698 v 24.404 l -22.488,-6.798 V 87.16 H -57.352 V 65.544 h 15.166 V 29.286 c 0,-12.089 3.225,-20.427 9.675,-25.015 C -26.062,-0.318 -15.226,-1.743 0,0"
       style="fill:#ffffff;fill-opacity:1;fill-rule:nonzero;stroke:none"
       transform="matrix(1.3333333,0,0,-1.3333333,960.9544,685.1348)"
       clip-path="url(#clipPath16)" />
    <path
       id="path17"
       d="m 0,0 c 4.532,4.647 10.284,6.972 17.258,6.972 6.972,0 12.724,-2.325 17.257,-6.972 4.647,-4.533 6.972,-10.402 6.972,-17.607 0,-7.206 -2.325,-13.133 -6.972,-17.78 -4.533,-4.533 -10.285,-6.799 -17.257,-6.799 -6.974,0 -12.726,2.266 -17.258,6.799 -4.533,4.647 -6.799,10.574 -6.799,17.78 0,7.205 2.266,13.074 6.799,17.607 m 13.073,-63.627 c 12.203,0 21.674,4.241 28.414,12.725 v -10.284 h 22.488 v 87.16 H 41.487 V 15.688 c -6.74,8.482 -16.211,12.726 -28.414,12.726 -11.622,0 -21.615,-4.475 -29.982,-13.423 -8.254,-8.95 -12.377,-19.815 -12.377,-32.598 0,-12.9 4.123,-23.824 12.377,-32.771 8.367,-8.833 18.36,-13.249 29.982,-13.249"
       style="fill:#ffffff;fill-opacity:1;fill-rule:nonzero;stroke:none"
       transform="matrix(1.3333333,0,0,-1.3333333,1011.6237,603.55333)"
       clip-path="url(#clipPath18)" />
    <path
       id="path19"
       d="m 843.087,566.149 h 22.487 v 127.253 h -22.487 z"
       style="fill:#ffffff;fill-opacity:1;fill-rule:nonzero;stroke:none"
       transform="matrix(1.3333333,0,0,-1.3333333,0,1440)"
       clip-path="url(#clipPath20)" />
    <path
       id="path21"
       d="m 0,0 c 3.901,3.14 8.875,4.759 14.918,4.854 5.343,0.084 9.986,-1.354 13.928,-4.312 3.939,-2.963 6.592,-7.28 7.961,-12.951 L -7.639,-13.108 C -6.449,-7.51 -3.902,-3.143 0,0 m 34.699,-72.3 c 1.09,0.313 2.17,0.663 3.239,1.047 0.037,0.014 0.076,0.024 0.114,0.038 1.071,0.388 2.13,0.813 3.176,1.273 0.032,0.013 0.065,0.025 0.097,0.039 1.073,0.474 2.132,0.984 3.174,1.531 l 0.003,0.002 c 0.113,0.059 0.23,0.108 0.342,0.168 L 32.75,-52.74 c -16.094,-7.205 -37.082,2.845 -39.766,22.207 l 65.711,1.034 c 0.522,3.726 0.764,6.812 0.725,9.251 C 59.216,-7.235 54.861,3.623 46.356,12.323 38.082,21.025 27.497,25.276 14.6,25.073 1.004,24.859 -9.967,20.269 -18.309,11.306 c -1.432,-1.518 -2.724,-3.1 -3.907,-4.735 l -0.003,0.054 C -22.306,6.499 -22.382,6.37 -22.467,6.243 l -0.001,-0.001 c -2.367,-3.33 -4.19,-6.915 -5.535,-10.723 -0.205,-0.544 -0.393,-1.09 -0.578,-1.638 -0.001,-0.005 -0.003,-0.008 -0.004,-0.012 0,0 -10e-4,-0.002 -10e-4,-0.004 -7.201,-21.359 0.241,-45.738 19.745,-59.121 8.023,-5.505 17.049,-8.419 26.101,-8.963 h 10e-4 v 0 c 4.7,-0.282 9.404,0.075 13.982,1.056 0.011,0.002 0.023,0.004 0.035,0.006 1.118,0.24 2.227,0.519 3.328,0.832 0.031,0.009 0.062,0.016 0.093,0.025"
       style="fill:#ffffff;fill-opacity:1;fill-rule:nonzero;stroke:none"
       transform="matrix(1.3333333,0,0,-1.3333333,660.39,597.1608)"
       clip-path="url(#clipPath22)" />
    <path
       id="path23"
       d="m 0,0 c -11.172,-11.725 -21.9,-17.573 -38.634,-17.551 l -26.276,0.048 0.146,117.763 1.102,0.445 c 6.985,2.821 14.378,4.503 21.896,4.982 l 3.263,0.207 C -21.769,105.872 -11.028,101.789 0.114,90.037 11.369,78.399 16.988,63.924 16.966,46.609 16.943,29.291 11.286,11.604 0,0 m 31.46,78.272 c -7.141,21.064 -34.831,56.485 -95.317,42.625 -2.86,-0.655 -5.499,-1.59 -8.555,-1.815 v 0.019 c -1.433,0.054 -3.008,0.462 -4.831,0.933 -0.8,0.207 -1.597,0.411 -2.395,0.594 -26.788,6.139 -49.965,3.844 -68.89,-6.821 -14.45,-8.143 -25.782,-21.294 -31.091,-36.082 -13.831,-38.528 2.572,-66.089 11.383,-80.896 0.53,-0.891 1.037,-1.741 1.512,-2.553 4.359,-7.448 6.827,-16.011 7.139,-24.764 0.968,-27.005 3.71,-47.49 8.627,-64.469 6.409,-22.129 16.508,-38.19 30.873,-49.098 l 11.221,-8.517 1.22,14.037 c 0.057,0.658 5.927,64.264 37.591,99.21 37.033,-40.719 43.261,-113.217 43.261,-113.217 30.487,23.151 37.959,68.722 39.703,117.318 0.389,10.929 3.476,21.635 8.934,30.961 8.911,15.232 23.986,40.14 9.615,82.535"
       style="fill:#ffffff;fill-opacity:1;fill-rule:nonzero;stroke:none"
       transform="matrix(1.3333333,0,0,-1.3333333,543.36333,685.9408)"
       clip-path="url(#clipPath24)" />
  </g>
</svg>
