<?xml version="1.0" encoding="UTF-8" standalone="no"?>
<!-- Created with Inkscape (http://www.inkscape.org/) -->

<svg
   version="1.1"
   id="svg1"
   width="1440"
   height="1440"
   viewBox="0 0 1440 1440"
   sodipodi:docname="Dental Story BW reverse.pdf"
   xmlns:inkscape="http://www.inkscape.org/namespaces/inkscape"
   xmlns:sodipodi="http://sodipodi.sourceforge.net/DTD/sodipodi-0.dtd"
   xmlns="http://www.w3.org/2000/svg"
   xmlns:svg="http://www.w3.org/2000/svg">
  <defs
     id="defs1">
    <clipPath
       clipPathUnits="userSpaceOnUse"
       id="clipPath3">
      <path
         d="M 0,1080 H 1080 V 0 H 0 Z"
         transform="translate(-502.35791,-482.24801)"
         id="path3" />
    </clipPath>
    <clipPath
       clipPathUnits="userSpaceOnUse"
       id="clipPath5">
      <path
         d="M 0,1080 H 1080 V 0 H 0 Z"
         transform="translate(-560.58011,-531.40621)"
         id="path5" />
    </clipPath>
    <clipPath
       clipPathUnits="userSpaceOnUse"
       id="clipPath7">
      <path
         d="M 0,1080 H 1080 V 0 H 0 Z"
         transform="translate(-651.92381,-446.16311)"
         id="path7" />
    </clipPath>
    <clipPath
       clipPathUnits="userSpaceOnUse"
       id="clipPath9">
      <path
         d="M 0,1080 H 1080 V 0 H 0 Z"
         transform="translate(-719.55962,-492.00881)"
         id="path9" />
    </clipPath>
    <clipPath
       clipPathUnits="userSpaceOnUse"
       id="clipPath11">
      <path
         d="M 0,1080 H 1080 V 0 H 0 Z"
         transform="translate(-805.04492,-448.42871)"
         id="path11" />
    </clipPath>
    <clipPath
       clipPathUnits="userSpaceOnUse"
       id="clipPath13">
      <path
         d="M 0,1080 H 1080 V 0 H 0 Z"
         transform="translate(-607.87012,-636.53372)"
         id="path13" />
    </clipPath>
    <clipPath
       clipPathUnits="userSpaceOnUse"
       id="clipPath15">
      <path
         d="M 0,1080 H 1080 V 0 H 0 Z"
         transform="translate(-716.64552,-567.85211)"
         id="path15" />
    </clipPath>
    <clipPath
       clipPathUnits="userSpaceOnUse"
       id="clipPath17">
      <path
         d="M 0,1080 H 1080 V 0 H 0 Z"
         transform="translate(-754.64754,-629.03812)"
         id="path17" />
    </clipPath>
    <clipPath
       clipPathUnits="userSpaceOnUse"
       id="clipPath19">
      <path
         d="M 0,1080 H 1080 V 0 H 0 Z"
         id="path19" />
    </clipPath>
    <clipPath
       clipPathUnits="userSpaceOnUse"
       id="clipPath21">
      <path
         d="M 0,1080 H 1080 V 0 H 0 Z"
         transform="translate(-491.22271,-633.83252)"
         id="path21" />
    </clipPath>
    <clipPath
       clipPathUnits="userSpaceOnUse"
       id="clipPath23">
      <path
         d="M 0,1080 H 1080 V 0 H 0 Z"
         transform="translate(-403.45261,-567.24761)"
         id="path23" />
    </clipPath>
  </defs>
  <sodipodi:namedview
     id="namedview1"
     pagecolor="#ffffff"
     bordercolor="#000000"
     borderopacity="0.25"
     inkscape:showpageshadow="2"
     inkscape:pageopacity="0.0"
     inkscape:pagecheckerboard="0"
     inkscape:deskcolor="#d1d1d1">
    <inkscape:page
       x="0"
       y="0"
       inkscape:label="1"
       id="page1"
       width="1440"
       height="1440"
       margin="1.41944 1.4133333 1.4133333 1.41944"
       bleed="0" />
  </sodipodi:namedview>
  <g
     id="layer-MC0"
     inkscape:groupmode="layer"
     inkscape:label="Layer 1">
    <path
       id="path1"
       d="M 1078.936,1.064 H 1.065 v 1077.871 h 1077.871 z"
       style="fill:#ffffff;fill-opacity:1;fill-rule:nonzero;stroke:none"
       transform="matrix(1.3333333,0,0,-1.3333333,0,1440)" />
    <path
       id="path2"
       d="m 0,0 c -1.628,1.159 -4.184,2.38 -7.669,3.66 -3.722,1.51 -6.336,2.498 -7.845,2.963 l -8.367,2.79 c -8.834,2.671 -14.992,5.23 -18.479,7.67 -3.138,2.439 -4.706,5.577 -4.706,9.413 0,3.601 1.452,6.537 4.358,8.803 2.903,2.266 6.798,3.4 11.679,3.4 10.691,0 18.479,-5.23 23.36,-15.689 L 12.552,34.688 C 8.368,43.405 2.498,50.145 -5.055,54.91 c -7.555,4.764 -16.212,7.148 -25.974,7.148 -11.156,0 -20.63,-3.312 -28.414,-9.937 -7.786,-6.392 -11.68,-15.166 -11.68,-26.321 0,-11.043 3.836,-19.41 11.505,-25.104 6.159,-4.3 14.584,-8.079 25.277,-11.33 9.877,-2.79 16.735,-5.403 20.57,-7.845 3.835,-2.326 5.752,-5.637 5.752,-9.936 0,-3.951 -1.628,-7.089 -4.88,-9.413 -3.255,-2.326 -8.137,-3.486 -14.643,-3.486 -13.946,0 -23.302,6.214 -28.066,18.652 l -20.57,-12.028 c 3.487,-9.414 9.354,-16.795 17.607,-22.138 8.25,-5.349 18.361,-8.02 30.331,-8.02 13.015,0 23.648,3.313 31.902,9.937 8.25,6.624 12.376,15.571 12.376,26.846 0,6.624 -1.512,12.376 -4.532,17.257 C 9.528,-7.091 5.693,-3.486 0,0"
       style="fill:#000000;fill-opacity:1;fill-rule:nonzero;stroke:none"
       transform="matrix(1.3333333,0,0,-1.3333333,669.81053,797.00267)"
       clip-path="url(#clipPath3)" />
    <path
       id="path4"
       d="m 0,0 -22.487,-6.799 v -17.605 h -15.166 v -21.617 h 15.166 V -82.28 c 0,-12.087 3.224,-20.425 9.674,-25.015 6.451,-4.589 17.286,-6.015 32.511,-4.27 v 20.395 c -4.301,-0.234 -7.904,-0.262 -10.807,-0.088 -2.907,0.175 -5.116,0.96 -6.624,2.355 C 0.754,-87.51 0,-85.304 0,-82.28 v 36.259 h 19.698 v 21.617 H 0 Z"
       style="fill:#000000;fill-opacity:1;fill-rule:nonzero;stroke:none"
       transform="matrix(1.3333333,0,0,-1.3333333,747.44013,731.4584)"
       clip-path="url(#clipPath5)" />
    <path
       id="path6"
       d="m 0,0 c -4.532,-4.533 -10.17,-6.798 -16.908,-6.798 -6.742,0 -12.377,2.265 -16.909,6.798 -4.418,4.647 -6.625,10.398 -6.625,17.258 0,6.856 2.207,12.607 6.625,17.258 4.532,4.532 10.167,6.798 16.909,6.798 6.738,0 12.376,-2.266 16.908,-6.798 C 4.533,29.982 6.799,24.231 6.799,17.258 6.799,10.285 4.533,4.532 0,0 m -16.908,63.278 c -12.9,0 -23.825,-4.475 -32.773,-13.422 -8.833,-8.834 -13.249,-19.699 -13.249,-32.598 0,-13.018 4.416,-23.943 13.249,-32.772 8.83,-8.834 19.756,-13.249 32.773,-13.249 13.013,0 23.938,4.415 32.771,13.249 8.949,8.947 13.423,19.871 13.423,32.772 0,12.782 -4.474,23.647 -13.423,32.598 -8.95,8.947 -19.873,13.422 -32.771,13.422"
       style="fill:#000000;fill-opacity:1;fill-rule:nonzero;stroke:none"
       transform="matrix(1.3333333,0,0,-1.3333333,869.23173,845.11587)"
       clip-path="url(#clipPath7)" />
    <path
       id="path8"
       d="M 0,0 V 14.993 H -22.487 V -72.168 H 0 v 41.662 c 0,8.367 2.672,14.353 8.019,17.955 5.46,3.719 11.619,5.113 18.478,4.184 V 16.735 C 20.335,16.735 14.874,15.312 10.11,12.464 5.344,9.615 1.975,5.461 0,0"
       style="fill:#000000;fill-opacity:1;fill-rule:nonzero;stroke:none"
       transform="matrix(1.3333333,0,0,-1.3333333,959.4128,783.98827)"
       clip-path="url(#clipPath9)" />
    <path
       id="path10"
       d="m 0,0 -22.662,58.573 h -24.579 l 35.735,-84.372 c -2.092,-5.927 -4.94,-10.224 -8.542,-12.899 -3.602,-2.672 -8.366,-3.949 -14.294,-3.835 v -20.919 c 11.156,-0.58 20.484,1.947 27.979,7.584 7.496,5.638 13.509,14.728 18.042,27.28 L 43.405,58.573 H 19.35 Z"
       style="fill:#000000;fill-opacity:1;fill-rule:nonzero;stroke:none"
       transform="matrix(1.3333333,0,0,-1.3333333,1073.3932,842.09507)"
       clip-path="url(#clipPath11)" />
    <path
       id="path12"
       d="m 0,0 c 5.344,0 9.558,-1.569 12.639,-4.707 3.078,-3.138 4.619,-7.556 4.619,-13.248 v -50.727 h 22.487 v 53.516 c 0,11.157 -3.138,19.986 -9.413,26.496 -6.044,6.39 -13.889,9.588 -23.533,9.588 -11.971,0 -20.63,-4.069 -25.974,-12.202 v 9.762 h -22.487 v -87.16 h 22.487 v 47.066 c 0,7.087 1.713,12.464 5.142,16.125 C -10.606,-1.831 -5.927,0 0,0"
       style="fill:#000000;fill-opacity:1;fill-rule:nonzero;stroke:none"
       transform="matrix(1.3333333,0,0,-1.3333333,810.49347,591.2884)"
       clip-path="url(#clipPath13)" />
    <path
       id="path14"
       d="m 0,0 v 20.395 c -4.301,-0.235 -7.904,-0.261 -10.808,-0.087 -2.906,0.173 -5.115,0.958 -6.624,2.353 -1.511,1.395 -2.265,3.6 -2.265,6.625 V 65.544 H 0 V 87.16 h -19.697 v 24.404 l -22.488,-6.798 V 87.16 H -57.351 V 65.544 h 15.166 V 29.286 c 0,-12.089 3.225,-20.427 9.675,-25.015 C -26.061,-0.318 -15.226,-1.743 0,0"
       style="fill:#000000;fill-opacity:1;fill-rule:nonzero;stroke:none"
       transform="matrix(1.3333333,0,0,-1.3333333,955.52733,682.86387)"
       clip-path="url(#clipPath15)" />
    <path
       id="path16"
       d="m 0,0 c 4.532,4.647 10.285,6.972 17.258,6.972 6.972,0 12.725,-2.325 17.258,-6.972 4.646,-4.533 6.972,-10.402 6.972,-17.607 0,-7.206 -2.326,-13.133 -6.972,-17.78 -4.533,-4.533 -10.286,-6.799 -17.258,-6.799 -6.973,0 -12.726,2.266 -17.258,6.799 -4.532,4.647 -6.799,10.574 -6.799,17.78 0,7.205 2.267,13.074 6.799,17.607 m 13.074,-63.627 c 12.202,0 21.673,4.241 28.414,12.725 v -10.284 h 22.488 v 87.16 H 41.488 V 15.688 c -6.741,8.482 -16.212,12.726 -28.414,12.726 -11.622,0 -21.615,-4.475 -29.983,-13.423 -8.253,-8.95 -12.377,-19.816 -12.377,-32.598 0,-12.9 4.124,-23.824 12.377,-32.772 8.368,-8.832 18.361,-13.248 29.983,-13.248"
       style="fill:#000000;fill-opacity:1;fill-rule:nonzero;stroke:none"
       transform="matrix(1.3333333,0,0,-1.3333333,1006.1967,601.28253)"
       clip-path="url(#clipPath17)" />
    <path
       id="path18"
       d="m 839.018,567.852 h 22.486 v 127.252 h -22.486 z"
       style="fill:#000000;fill-opacity:1;fill-rule:nonzero;stroke:none"
       transform="matrix(1.3333333,0,0,-1.3333333,0,1440)"
       clip-path="url(#clipPath19)" />
    <path
       id="path20"
       d="m 0,0 c 3.901,3.139 8.875,4.759 14.918,4.854 5.343,0.084 9.986,-1.354 13.928,-4.312 3.939,-2.963 6.592,-7.28 7.961,-12.951 L -7.639,-13.108 C -6.449,-7.51 -3.902,-3.143 0,0 m 34.699,-72.3 c 1.09,0.313 2.17,0.663 3.239,1.047 0.037,0.014 0.076,0.024 0.114,0.038 1.071,0.388 2.13,0.813 3.176,1.272 0.032,0.014 0.065,0.026 0.097,0.04 1.073,0.474 2.132,0.984 3.174,1.531 10e-4,0.001 0.002,0.001 0.003,0.002 0.113,0.059 0.23,0.108 0.342,0.168 L 32.75,-52.74 c -16.094,-7.205 -37.082,2.845 -39.766,22.207 l 65.711,1.034 c 0.522,3.726 0.764,6.812 0.726,9.251 C 59.216,-7.235 54.861,3.623 46.356,12.323 38.082,21.025 27.497,25.276 14.6,25.073 1.004,24.859 -9.967,20.269 -18.309,11.306 -19.741,9.788 -21.033,8.205 -22.216,6.571 l -0.003,0.054 c -0.087,-0.126 -0.163,-0.256 -0.248,-0.382 l -0.001,-0.001 c -2.367,-3.33 -4.19,-6.915 -5.535,-10.723 -0.205,-0.544 -0.393,-1.09 -0.578,-1.639 -0.001,-0.004 -0.003,-0.007 -0.004,-0.011 0,0 -10e-4,-0.002 -10e-4,-0.004 -7.201,-21.359 0.241,-45.739 19.745,-59.122 8.023,-5.504 17.049,-8.418 26.101,-8.962 h 10e-4 v 0 c 4.7,-0.282 9.404,0.075 13.982,1.055 0.011,0.003 0.023,0.005 0.035,0.007 1.118,0.24 2.227,0.519 3.328,0.832 0.031,0.009 0.062,0.016 0.093,0.025"
       style="fill:#000000;fill-opacity:1;fill-rule:nonzero;stroke:none"
       transform="matrix(1.3333333,0,0,-1.3333333,654.9636,594.89)"
       clip-path="url(#clipPath21)" />
    <path
       id="path22"
       d="m 0,0 c -11.172,-11.726 -21.9,-17.574 -38.634,-17.552 l -26.276,0.049 0.146,117.762 1.102,0.446 c 6.985,2.821 14.378,4.503 21.897,4.982 l 3.262,0.207 C -21.769,105.872 -11.028,101.789 0.114,90.037 11.369,78.399 16.988,63.924 16.966,46.608 16.943,29.291 11.286,11.604 0,0 m 31.46,78.272 c -7.141,21.064 -34.831,56.485 -95.317,42.625 -2.86,-0.655 -5.499,-1.59 -8.555,-1.815 v 0.019 c -1.433,0.054 -3.008,0.462 -4.831,0.933 -0.8,0.207 -1.597,0.411 -2.395,0.594 -26.788,6.139 -49.965,3.844 -68.89,-6.821 -14.45,-8.143 -25.782,-21.294 -31.091,-36.082 -13.831,-38.528 2.572,-66.089 11.383,-80.896 0.53,-0.891 1.037,-1.742 1.512,-2.553 4.359,-7.448 6.828,-16.011 7.139,-24.765 0.968,-27.004 3.71,-47.489 8.627,-64.468 6.409,-22.129 16.508,-38.19 30.873,-49.098 l 11.221,-8.517 1.22,14.037 c 0.057,0.658 5.927,64.264 37.591,99.21 37.033,-40.719 43.261,-113.217 43.261,-113.217 30.487,23.151 37.959,68.722 39.703,117.318 0.389,10.929 3.476,21.635 8.934,30.961 8.911,15.232 23.986,40.14 9.615,82.535"
       style="fill:#000000;fill-opacity:1;fill-rule:nonzero;stroke:none"
       transform="matrix(1.3333333,0,0,-1.3333333,537.9368,683.66987)"
       clip-path="url(#clipPath23)" />
  </g>
</svg>
