<svg xmlns="http://www.w3.org/2000/svg" viewBox="0 0 1200 800" role="img">
  <defs>
    <linearGradient id="bg" x1="0" y1="0" x2="0" y2="1">
      <stop offset="0" stop-color="#f4f9fa"/>
      <stop offset="1" stop-color="#e3eef0"/>
    </linearGradient>
  </defs>
  <rect width="1200" height="800" fill="url(#bg)"/>
  <ellipse cx="600" cy="700" rx="330" ry="28" fill="#2c3e42" opacity="0.05"/>
  <g transform="translate(0 95)">
    <g transform="translate(289 266) rotate(0)"><path d="M -38 0 H 38 Q 52 0 52 14 V 158 Q 52 198 12 198 H -12 Q -52 198 -52 158 V 14 Q -52 0 -38 0 Z" fill="#ffffff" stroke="rgba(44,62,66,0.10)" stroke-width="2"/>
    </g>
    <g transform="translate(407 266) rotate(0)"><path d="M -42 0 H 42 Q 56 0 56 14 V 176 Q 56 216 16 216 H -16 Q -56 216 -56 176 V 14 Q -56 0 -42 0 Z" fill="#ffffff" stroke="rgba(44,62,66,0.10)" stroke-width="2"/>
    </g>
    <path d="M 440.6 340 Q 447.32 357.28 464.6 364 Q 447.32 370.72 440.6 388 Q 433.88 370.72 416.6 364 Q 433.88 357.28 440.6 340 Z" fill="#7fb3bc" opacity="0.95"/>
    <g transform="translate(534 266) rotate(0)"><path d="M -47 0 H 47 Q 61 0 61 14 V 196 Q 61 236 21 236 H -21 Q -61 236 -61 196 V 14 Q -61 0 -47 0 Z" fill="#ffffff" stroke="rgba(44,62,66,0.10)" stroke-width="2"/>
    </g>
    <g transform="translate(666 266) rotate(0)"><path d="M -47 0 H 47 Q 61 0 61 14 V 196 Q 61 236 21 236 H -21 Q -61 236 -61 196 V 14 Q -61 0 -47 0 Z" fill="#ffffff" stroke="rgba(44,62,66,0.10)" stroke-width="2"/>
    </g>
    <g transform="translate(793 266) rotate(0)"><path d="M -42 0 H 42 Q 56 0 56 14 V 176 Q 56 216 16 216 H -16 Q -56 216 -56 176 V 14 Q -56 0 -42 0 Z" fill="#ffffff" stroke="rgba(44,62,66,0.10)" stroke-width="2"/>
    </g>
    <path d="M 826.6 340 Q 833.32 357.28 850.6 364 Q 833.32 370.72 826.6 388 Q 819.88 370.72 802.6 364 Q 819.88 357.28 826.6 340 Z" fill="#7fb3bc" opacity="0.95"/>
    <g transform="translate(911 266) rotate(0)"><path d="M -38 0 H 38 Q 52 0 52 14 V 158 Q 52 198 12 198 H -12 Q -52 198 -52 158 V 14 Q -52 0 -38 0 Z" fill="#ffffff" stroke="rgba(44,62,66,0.10)" stroke-width="2"/>
    </g>
    <path d="M 240 300 V 220 Q 240 128 340 128 H 860 Q 960 128 960 220 V 300 Q 780 270 600 270 Q 420 270 240 300 Z" fill="#e2988f"/>
    <path d="M 240 300 Q 420 258 600 258 Q 780 258 960 300 Q 780 282 600 282 Q 420 282 240 300 Z" fill="#c97f76" opacity="0.35"/>
  </g>
</svg>
