<?xml version="1.0" encoding="UTF-8"?>
<svg version="1.2" baseProfile="tiny-ps" xmlns="http://www.w3.org/2000/svg" viewBox="0 0 512 512">
  <title>DentalStory</title>
  <rect x="0" y="0" width="512" height="512" fill="#5A8A94" />
  <g transform="translate(128.403,97.28) scale(0.86074)">
    <g transform="translate(-296.75394,-520.57122)">
      <path fill="#ffffff" fill-rule="nonzero" transform="matrix(1.3333333,0,0,-1.3333333,543.36333,685.9408)" d="m 0,0 c -11.172,-11.725 -21.9,-17.573 -38.634,-17.551 l -26.276,0.048 0.146,117.763 1.102,0.445 c 6.985,2.821 14.378,4.503 21.896,4.982 l 3.263,0.207 C -21.769,105.872 -11.028,101.789 0.114,90.037 11.369,78.399 16.988,63.924 16.966,46.609 16.943,29.291 11.286,11.604 0,0 m 31.46,78.272 c -7.141,21.064 -34.831,56.485 -95.317,42.625 -2.86,-0.655 -5.499,-1.59 -8.555,-1.815 v 0.019 c -1.433,0.054 -3.008,0.462 -4.831,0.933 -0.8,0.207 -1.597,0.411 -2.395,0.594 -26.788,6.139 -49.965,3.844 -68.89,-6.821 -14.45,-8.143 -25.782,-21.294 -31.091,-36.082 -13.831,-38.528 2.572,-66.089 11.383,-80.896 0.53,-0.891 1.037,-1.741 1.512,-2.553 4.359,-7.448 6.827,-16.011 7.139,-24.764 0.968,-27.005 3.71,-47.49 8.627,-64.469 6.409,-22.129 16.508,-38.19 30.873,-49.098 l 11.221,-8.517 1.22,14.037 c 0.057,0.658 5.927,64.264 37.591,99.21 37.033,-40.719 43.261,-113.217 43.261,-113.217 30.487,23.151 37.959,68.722 39.703,117.318 0.389,10.929 3.476,21.635 8.934,30.961 8.911,15.232 23.986,40.14 9.615,82.535" />
    </g>
  </g>
</svg>
