<svg xmlns="http://www.w3.org/2000/svg" viewBox="0 0 800 600" width="800" height="600" role="img" aria-label="Елайнери">

  <defs>
    <linearGradient id="bg14" x1="0" y1="0" x2="1" y2="1">
      <stop offset="0" stop-color="#AECED3"/>
      <stop offset="1" stop-color="#3f6f79"/>
    </linearGradient>
    <linearGradient id="tooth14" x1="0" y1="0" x2="0" y2="1">
      <stop offset="0" stop-color="#ffffff"/>
      <stop offset="1" stop-color="#eaf3f4"/>
    </linearGradient>
  </defs>
  <rect width="800" height="600" fill="url(#bg14)"/>
  <circle cx="128" cy="120" r="132" fill="#ffffff" opacity="0.08"/>
  <circle cx="704" cy="516" r="180" fill="#2C3E42" opacity="0.07"/>
<path d="M 312.6 176 c -11.399999999999999 -49.4 38 -83.6 76 -57 c 15.2 11.399999999999999 30.4 11.399999999999999 45.599999999999994 0 c 38 -26.599999999999998 87.39999999999999 7.6 76 57 c -7.6 34.199999999999996 -15.2 64.6 -26.599999999999998 110.19999999999999 c -9.5 38 -41.8 41.8 -49.4 3.8 c -5.699999999999999 -26.599999999999998 -28.5 -26.599999999999998 -34.199999999999996 0 c -7.6 38 -39.9 34.199999999999996 -49.4 -3.8 c -11.399999999999999 -45.599999999999994 -19 -76 -26.599999999999998 -110.19999999999999 Z" fill="url(#tooth14)" stroke="#2F5962" stroke-width="5.699999999999999" stroke-linejoin="round"/>
<g stroke="#3f6f79" stroke-width="6.08" fill="none" stroke-linecap="round" stroke-linejoin="round"><path d="M 362 229.2 q 38 -19 76 0 v 45.599999999999994 q -38 19 -76 0 Z"/></g>
<text x="400" y="484" text-anchor="middle" font-family="Nunito, Verdana, sans-serif" font-size="34" font-weight="800" fill="#ffffff">Елайнери</text>
<g transform="translate(400,526)" text-anchor="middle">
    <text font-family="Nunito, Verdana, sans-serif" font-size="20" font-weight="700" fill="#ffffff" opacity="0.9" letter-spacing="1.5">DENTAL STORY</text>
  </g>
</svg>