<svg xmlns="http://www.w3.org/2000/svg" viewBox="0 0 800 450" width="800" height="450" role="img" aria-label="Dental Story service category">

  <defs>
    <linearGradient id="bgc1" x1="0" y1="0" x2="1" y2="1">
      <stop offset="0" stop-color="#AECED3"/>
      <stop offset="1" stop-color="#3f6f79"/>
    </linearGradient>
    <linearGradient id="toothc1" x1="0" y1="0" x2="0" y2="1">
      <stop offset="0" stop-color="#ffffff"/>
      <stop offset="1" stop-color="#eaf3f4"/>
    </linearGradient>
  </defs>
  <rect width="800" height="450" fill="url(#bgc1)"/>
  <circle cx="128" cy="90" r="99" fill="#ffffff" opacity="0.08"/>
  <circle cx="704" cy="387" r="135" fill="#2C3E42" opacity="0.07"/>
<path d="M 321.8 139 c -10.2 -44.2 34 -74.8 68 -51 c 13.6 10.2 27.2 10.2 40.8 0 c 34 -23.8 78.2 6.8 68 51 c -6.8 30.6 -13.6 57.8 -23.8 98.6 c -8.5 34 -37.4 37.4 -44.2 3.4 c -5.1 -23.8 -25.5 -23.8 -30.6 0 c -6.8 34 -35.7 30.6 -44.2 -3.4 c -10.2 -40.8 -17 -68 -23.8 -98.6 Z" fill="url(#toothc1)" stroke="#2F5962" stroke-width="5.1" stroke-linejoin="round"/>
<g stroke="#3f6f79" stroke-width="5.44" fill="none" stroke-linecap="round" stroke-linejoin="round"><path d="M 400 173 v 68"/><path d="M 379.6 190 h 40.8"/><path d="M 379.6 207 h 40.8"/><path d="M 384.7 224 h 30.6"/></g>
<g transform="translate(400,376)" text-anchor="middle">
    <text font-family="Nunito, Verdana, sans-serif" font-size="20" font-weight="700" fill="#ffffff" opacity="0.9" letter-spacing="1.5">DENTAL STORY</text>
  </g>
</svg>
