<svg xmlns="http://www.w3.org/2000/svg" viewBox="0 0 800 600" width="800" height="600" role="img" aria-label="Dental Story service placeholder">

  <defs>
    <linearGradient id="bg4" x1="0" y1="0" x2="1" y2="1">
      <stop offset="0" stop-color="#AECED3"/>
      <stop offset="1" stop-color="#3f6f79"/>
    </linearGradient>
    <linearGradient id="tooth4" x1="0" y1="0" x2="0" y2="1">
      <stop offset="0" stop-color="#ffffff"/>
      <stop offset="1" stop-color="#eaf3f4"/>
    </linearGradient>
  </defs>
  <rect width="800" height="600" fill="url(#bg4)"/>
  <circle cx="128" cy="120" r="132" fill="#ffffff" opacity="0.08"/>
  <circle cx="704" cy="516" r="180" fill="#2C3E42" opacity="0.07"/>
<path d="M 301.1 184 c -12.9 -55.9 43 -94.6 86 -64.5 c 17.2 12.9 34.4 12.9 51.6 0 c 43 -30.1 98.9 8.6 86 64.5 c -8.6 38.7 -17.2 73.1 -30.1 124.7 c -10.75 43 -47.3 47.3 -55.9 4.3 c -6.45 -30.1 -32.25 -30.1 -38.7 0 c -8.6 43 -45.15 38.7 -55.9 -4.3 c -12.9 -51.6 -21.5 -86 -30.1 -124.7 Z" fill="url(#tooth4)" stroke="#2F5962" stroke-width="6.45" stroke-linejoin="round"/>
<g stroke="#3f6f79" stroke-width="6.88" fill="none" stroke-linecap="round" stroke-linejoin="round"><path d="M 400 235.6 v 73.1"/><path d="M 400 282.9 l -19.35 21.5"/><path d="M 400 282.9 l 19.35 21.5"/></g>
<g transform="translate(400,526)" text-anchor="middle">
    <text font-family="Nunito, Verdana, sans-serif" font-size="20" font-weight="700" fill="#ffffff" opacity="0.9" letter-spacing="1.5">DENTAL STORY</text>
  </g>
</svg>
